<?xml version="1.0" standalone="no"?>
<!DOCTYPE svg PUBLIC "-//W3C//DTD SVG 20010904//EN"
 "http://www.w3.org/TR/2001/REC-SVG-20010904/DTD/svg10.dtd">
<svg version="1.0" xmlns="http://www.w3.org/2000/svg"
 width="225.000000pt" height="225.000000pt" viewBox="0 0 225.000000 225.000000"
 preserveAspectRatio="xMidYMid meet">
<metadata>
Created by potrace 1.15, written by Peter Selinger 2001-2017
</metadata>
<g transform="translate(0.000000,225.000000) scale(0.100000,-0.100000)"
fill="#000000" stroke="none">
<path d="M1000 2154 c-139 -18 -332 -90 -442 -164 -228 -155 -369 -356 -439
-627 -31 -118 -33 -338 -5 -458 77 -330 294 -594 596 -726 149 -64 243 -83
415 -83 172 0 266 19 415 83 323 141 548 433 605 786 75 459 -178 923 -603
1105 -133 57 -238 80 -382 85 -69 2 -141 1 -160 -1z m268 -320 c192 -40 352
-147 458 -306 222 -334 134 -784 -198 -1004 -431 -287 -1007 -49 -1112 458
-104 505 347 956 852 852z"/>
<path d="M960 1764 c-229 -60 -417 -249 -475 -479 -19 -77 -19 -243 0 -320 46
-182 176 -345 337 -424 111 -54 182 -71 303 -71 188 0 335 60 465 190 130 130
190 277 190 465 0 121 -17 192 -71 303 -78 160 -243 291 -424 337 -75 19 -251
19 -325 -1z m272 -319 c165 -22 385 -103 422 -157 18 -26 21 -80 6 -109 -13
-23 -61 -49 -92 -49 -13 0 -41 10 -63 21 -64 35 -184 76 -265 90 -100 18 -332
15 -435 -5 -108 -22 -128 -20 -164 10 -26 21 -31 33 -31 69 0 82 42 107 228
130 133 17 267 17 394 0z m28 -249 c97 -21 225 -73 260 -106 54 -51 35 -133
-37 -154 -15 -5 -46 5 -96 28 -134 64 -299 87 -467 66 -205 -25 -193 -26 -223
10 -31 36 -33 59 -12 100 17 33 47 45 171 65 106 17 307 13 404 -9z m-21 -217
c29 -7 90 -31 135 -53 79 -40 81 -42 84 -80 3 -29 -2 -44 -19 -62 -29 -31 -67
-31 -129 1 -27 14 -78 32 -112 40 -77 18 -252 19 -349 3 -59 -10 -74 -10 -96
2 -54 31 -49 110 7 137 68 33 365 40 479 12z"/>
<path d="M805 1375 c-107 -17 -135 -28 -135 -54 0 -37 21 -42 101 -24 55 13
124 17 269 17 220 1 296 -13 441 -80 79 -37 121 -41 127 -12 5 26 -35 56 -122
89 -157 60 -216 71 -411 75 -124 2 -208 -1 -270 -11z"/>
<path d="M831 1135 c-40 -8 -78 -18 -84 -24 -13 -13 0 -44 17 -38 45 17 192
29 313 24 150 -5 217 -19 325 -69 66 -30 88 -31 88 -2 0 23 -141 84 -244 105
-108 22 -303 24 -415 4z"/>
<path d="M945 934 c-140 -20 -165 -27 -165 -41 0 -11 6 -14 23 -9 167 46 409
26 548 -45 34 -17 49 -16 49 2 0 11 -137 65 -196 77 -59 13 -216 22 -259 16z"/>
</g>
</svg>
